<!DOCTYPE svg PUBLIC "-//W3C//DTD SVG 20010904//EN" "http://www.w3.org/TR/2001/REC-SVG-20010904/DTD/svg10.dtd">
<svg version="1.0" xmlns="http://www.w3.org/2000/svg" width="720px" height="720px" viewBox="0 0 7200 7200" preserveAspectRatio="xMidYMid meet">
<g id="layer1" fill="#000000" stroke="none">
 <path d="M55 7182 c-57 -35 -57 -36 -51 -224 5 -181 12 -256 27 -274 4 -5 13 -44 20 -85 6 -40 14 -78 18 -84 5 -5 14 -50 21 -100 7 -49 17 -94 21 -100 4 -5 13 -47 19 -93 7 -45 16 -85 21 -88 5 -3 9 -18 9 -34 0 -16 4 -31 9 -34 5 -3 14 -43 21 -88 6 -46 15 -87 19 -93 4 -5 14 -50 21 -100 7 -49 17 -94 21 -100 4 -5 10 -32 14 -60 4 -27 11 -54 15 -60 4 -5 11 -32 15 -60 4 -27 10 -54 15 -60 4 -5 10 -35 14 -65 8 -59 28 -90 57 -90 11 0 317 298 749 730 633 632 730 733 730 758 0 38 -14 49 -75 57 -27 4 -54 11 -60 15 -5 4 -46 13 -90 20 -44 6 -84 16 -90 20 -5 4 -31 11 -57 14 -26 4 -50 11 -53 16 -3 4 -29 11 -58 15 -28 4 -56 11 -62 15 -5 4 -46 13 -90 20 -44 7 -84 15 -90 20 -5 4 -41 13 -80 19 -38 7 -79 16 -90 21 -55 22 -86 31 -155 45 -111 21 -243 51 -260 58 -8 3 -42 11 -75 17 -33 6 -69 15 -80 19 -37 16 -151 31 -231 31 -59 0 -87 -5 -109 -18z"/>
 <path d="M5520 7188 c-25 -5 -54 -13 -65 -18 -11 -5 -38 -14 -60 -20 -65 -19 -213 -88 -255 -119 -14 -10 -57 -39 -96 -65 -82 -54 -283 -255 -313 -313 -11 -22 -36 -61 -55 -86 -19 -25 -49 -78 -66 -119 -17 -40 -37 -88 -45 -106 -8 -18 -15 -40 -15 -48 0 -15 -20 -66 -40 -106 -5 -9 -14 -74 -20 -145 -7 -70 -16 -138 -21 -151 -12 -31 -11 -129 1 -137 6 -3 10 -26 10 -51 0 -61 20 -187 31 -198 5 -6 9 -22 9 -37 0 -15 5 -31 10 -34 33 -20 1 -58 -305 -365 l-315 -314 -834 833 c-567 567 -839 832 -850 830 -10 -2 -348 -334 -752 -738 -596 -596 -734 -739 -734 -760 0 -21 119 -145 620 -646 342 -341 714 -713 828 -827 l206 -208 -289 -290 c-282 -281 -320 -313 -340 -280 -3 5 -19 10 -34 10 -15 0 -31 4 -37 9 -11 11 -136 31 -193 31 -22 0 -43 5 -46 10 -8 13 -152 13 -160 0 -3 -5 -25 -10 -49 -10 -60 0 -206 -19 -233 -31 -55 -22 -71 -28 -116 -39 -26 -7 -50 -17 -53 -21 -3 -5 -12 -9 -20 -9 -24 0 -146 -62 -193 -97 -24 -19 -62 -44 -85 -55 -58 -30 -258 -230 -313 -313 -25 -38 -54 -81 -65 -95 -28 -38 -100 -194 -118 -255 -6 -22 -15 -49 -20 -60 -23 -52 -30 -146 -30 -383 0 -244 9 -363 30 -400 5 -9 21 -53 36 -97 28 -86 57 -128 87 -123 10 2 224 208 475 459 509 507 537 530 664 550 88 14 197 -2 243 -35 30 -21 53 -36 90 -56 24 -14 76 -83 106 -140 16 -31 23 -66 27 -135 6 -113 -9 -182 -54 -250 -18 -28 -240 -258 -493 -511 -297 -297 -461 -468 -461 -481 0 -33 48 -64 145 -94 22 -6 49 -16 60 -20 54 -23 134 -29 407 -29 294 0 370 6 426 36 15 8 33 14 40 14 33 0 213 90 272 134 25 19 51 35 58 35 23 1 297 282 337 346 72 113 107 180 145 280 75 196 93 299 93 530 0 160 -13 254 -49 361 l-25 76 291 290 c159 160 292 289 295 287 2 -2 273 -273 603 -601 553 -553 601 -598 632 -598 31 0 86 53 762 728 566 566 728 734 728 753 0 18 -136 160 -607 631 l-607 607 300 301 c164 165 308 306 320 314 17 12 28 12 55 3 19 -7 39 -15 45 -19 6 -4 51 -12 100 -19 49 -6 98 -16 109 -21 25 -11 244 -5 370 11 84 10 187 35 210 51 6 4 30 12 55 19 42 11 87 29 135 54 11 6 34 17 50 24 38 18 43 21 99 61 26 17 51 32 57 32 5 0 74 64 152 143 188 186 251 280 333 492 50 130 53 159 54 487 0 315 -4 360 -41 445 -11 24 -19 47 -19 51 0 14 -31 75 -48 95 -8 9 -24 17 -35 17 -13 0 -180 -160 -480 -460 -253 -253 -481 -474 -506 -490 -25 -17 -67 -37 -95 -45 -64 -19 -188 -19 -253 0 -65 19 -179 107 -209 160 -13 22 -29 51 -37 65 -28 49 -40 152 -27 231 22 131 48 162 556 669 485 484 483 482 424 515 -45 26 -119 55 -153 62 -17 3 -36 9 -42 13 -5 4 -34 13 -63 19 -64 13 -587 13 -652 -1z"/>
 <path d="M5568 1592 c-585 -585 -738 -743 -738 -763 0 -19 73 -97 343 -363 188 -186 349 -344 357 -350 8 -7 42 -25 75 -41 33 -16 66 -34 74 -39 32 -24 113 -35 259 -36 85 0 174 5 199 12 53 13 182 79 228 115 47 38 688 677 742 741 87 101 93 123 93 343 0 187 0 191 -27 247 -44 91 -121 176 -481 535 -259 258 -344 337 -363 337 -18 0 -193 -169 -761 -738z"/>
 </g>

</svg>