
<svg version="1.0" xmlns="http://www.w3.org/2000/svg" width="1000px" height="1000px" viewBox="0 0 10000 10000" preserveAspectRatio="xMidYMid meet">
<g id="layer1" fill="#000000" stroke="none">
 <path d="M2137 6879 c-109 -26 -209 -109 -260 -217 l-32 -67 -3 -2084 c-3 -2305 -7 -2148 62 -2255 33 -51 96 -110 145 -136 56 -29 97 -34 306 -39 l220 -6 5 -133 5 -134 34 -30 c30 -27 39 -30 79 -25 30 3 53 13 70 31 24 24 26 32 31 158 l6 133 260 0 260 0 5 -137 c6 -160 14 -176 92 -185 40 -5 49 -2 79 25 l34 30 5 134 5 133 225 0 225 0 5 -137 c4 -122 7 -140 26 -158 42 -42 139 -34 167 14 7 12 14 77 17 151 l5 130 250 0 250 0 5 -137 c6 -160 14 -176 92 -185 40 -5 49 -2 79 25 l34 30 5 134 5 133 245 6 c261 5 282 9 361 59 65 42 105 90 143 170 l31 65 3 240 3 240 -145 144 c-79 79 -149 140 -155 136 -8 -4 -11 -115 -11 -345 l0 -338 -26 -31 -26 -31 -212 2 -211 3 -6 85 c-3 47 -9 93 -13 102 -23 52 -115 64 -165 22 -29 -24 -30 -28 -33 -117 l-3 -92 -250 0 -250 0 -5 85 c-7 121 -28 150 -109 150 -28 0 -48 -7 -68 -24 -26 -23 -28 -31 -33 -118 l-5 -93 -225 0 -225 0 -6 85 c-3 47 -9 93 -13 102 -23 52 -115 64 -165 22 -29 -24 -30 -28 -33 -117 l-3 -92 -260 0 -260 0 -7 89 c-6 78 -10 92 -34 117 -23 24 -36 29 -74 29 -38 0 -51 -5 -75 -30 -25 -26 -29 -38 -34 -117 l-6 -88 -186 -3 -187 -2 -26 31 -26 31 0 2035 0 2035 29 29 29 29 465 0 464 0 62 32 c83 43 150 42 282 -1 l96 -31 887 0 888 0 29 -29 29 -29 0 -574 0 -573 139 -139 c98 -98 144 -137 155 -133 14 6 16 75 16 710 0 431 -4 725 -10 757 -24 127 -103 229 -220 284 l-65 31 -1625 2 c-926 0 -1641 -3 -1663 -8z"/>
 <path d="M3287 6412 c-10 -10 -17 -33 -17 -51 0 -27 113 -394 307 -996 l26 -80 180 -182 181 -183 -587 0 c-627 0 -641 -1 -666 -48 -21 -39 -13 -91 18 -123 l29 -29 704 0 703 0 680 -680 c374 -374 687 -680 695 -680 20 0 800 780 800 800 0 8 -433 448 -962 976 -826 825 -969 964 -1008 978 -189 67 -999 316 -1029 316 -24 0 -44 -7 -54 -18z m690 -359 c98 -31 180 -58 183 -60 2 -2 -97 -105 -220 -228 -124 -124 -227 -221 -231 -217 -4 4 -32 88 -63 186 l-57 180 98 98 c54 54 101 98 105 98 4 0 87 -25 185 -57z m785 -1541 c439 -438 758 -765 758 -775 0 -21 -43 -67 -62 -67 -20 0 -1538 1522 -1538 1542 0 25 36 58 62 58 17 0 227 -205 780 -758z"/>
 <path d="M7736 4448 c-28 -8 -65 -37 -137 -106 -55 -52 -99 -99 -99 -104 0 -17 1014 -1038 1031 -1038 9 0 61 46 116 103 104 107 113 125 113 209 0 21 -7 55 -15 75 -10 24 -145 166 -398 420 -210 210 -387 383 -392 383 -6 0 -16 9 -22 20 -13 19 -100 51 -137 49 -12 -1 -38 -6 -60 -11z"/>
 <path d="M2729 4101 c-54 -55 -34 -140 39 -161 51 -14 1883 -14 1934 1 70 19 91 107 39 160 l-29 29 -977 0 -977 0 -29 -29z"/>
 <path d="M7400 4040 c-35 -10 -43 -16 -132 -130 -32 -40 -63 -65 -114 -92 l-70 -37 -102 10 c-97 10 -111 14 -235 75 -73 36 -154 78 -182 94 -88 52 -102 56 -166 43 -26 -5 -94 -67 -329 -298 -162 -160 -325 -320 -362 -355 -38 -35 -68 -68 -68 -74 0 -6 97 -108 216 -226 119 -118 222 -230 230 -247 8 -18 18 -33 23 -33 4 0 22 -26 38 -57 106 -201 84 -432 -59 -638 -18 -26 -37 -54 -43 -62 -5 -8 -37 -41 -70 -72 -32 -31 -72 -68 -87 -82 -15 -15 -33 -29 -40 -32 -7 -2 -51 -28 -98 -56 -46 -29 -96 -55 -110 -58 -14 -3 -36 -13 -49 -22 -43 -28 -341 -81 -460 -81 -149 -1 -191 -26 -191 -110 0 -53 26 -95 68 -111 38 -15 217 -39 289 -39 34 0 65 -4 68 -10 8 -13 142 -13 150 0 3 6 34 10 68 10 140 0 398 46 587 105 63 20 124 40 135 45 11 5 54 23 95 41 41 17 109 49 151 70 41 22 78 39 82 39 4 0 33 17 64 37 32 21 74 46 93 57 40 22 218 143 264 180 202 163 207 167 392 349 148 147 162 163 174 210 7 29 30 93 51 142 22 50 39 96 39 103 0 6 4 12 9 12 4 0 24 24 43 53 74 111 210 235 303 277 104 47 134 59 189 71 32 7 60 19 63 26 4 9 -142 163 -393 415 -220 221 -414 416 -432 435 -35 35 -37 35 -92 23z"/>
 <path d="M2726 3389 c-35 -41 -35 -96 -1 -133 l24 -26 985 0 984 0 26 31 c36 43 35 91 -3 130 l-29 29 -980 0 -980 0 -26 -31z"/>
 </g>

</svg>